Coordinates
version=1
nRows=9
nColumns=24
inDegrees=yes

Units are S.I. units (second, meters, Newtons, ...)
Angles are in degrees.

endheader
time	pelvis_tilt	pelvis_list	pelvis_rotation	pelvis_tx	pelvis_ty	pelvis_tz	hip_flexion_r	hip_adduction_r	hip_rotation_r	knee_angle_r	ankle_angle_r	subtalar_angle_r	mtp_angle_r	hip_flexion_l	hip_adduction_l	hip_rotation_l	knee_angle_l	ankle_angle_l	subtalar_angle_l	mtp_angle_l	lumbar_extension	lumbar_bending	lumbar_rotation
      1.69000000	     67.95578004	     -2.25383042	      4.03863905	      0.65978853	      1.01791505	     -0.20842105	    -10.54008618	     -8.93002324	      3.56239553	    -72.77858715	    -15.39365236	     21.63024024	     71.13788034	    -15.39669488	    -17.29303347	      5.32228401	    -46.91422203	     -5.99254713	   -620.02108622	     90.79782852	      0.00000000	      0.00000000	      0.00000000
      1.70000000	     68.05378990	     -2.43290848	      4.15104170	      0.65924744	      1.01666687	     -0.20902687	    -10.49068023	     -9.61178206	      3.76211759	    -75.01130707	    -15.28550877	     21.76377071	     71.79671191	    -15.24728787	    -17.26230339	      5.35962732	    -44.68954490	     14.37065594	   -671.24815488	     98.78417219	      0.00000000	      0.00000000	      0.00000000
      1.71000000	     68.18745498	     -2.64327157	      4.31796769	      0.65916079	      1.01466818	     -0.20934640	    -10.47226877	    -10.25447646	      4.00664772	    -77.03123479	    -15.18047096	     21.99900004	     72.46656888	    -14.85520808	    -16.96559228	      5.32352429	    -42.97648544	     40.44151532	   -721.43431190	    105.96209062	      0.00000000	      0.00000000	      0.00000000
      1.72000000	     68.33105605	     -2.76569704	      4.39190589	      0.65957147	      1.01377939	     -0.20913785	    -10.46729385	    -10.87435854	      4.33198980	    -78.80934680	    -15.08872688	     22.25246875	     73.12404490	    -14.31737458	    -16.59307500	      5.32032862	    -42.20816109	     71.16701187	   -768.91221001	    111.79914484	      0.00000000	      0.00000000	      0.00000000
      1.73000000	     68.38874205	     -2.70930661	      4.29388798	      0.65956702	      1.01501373	     -0.20851237	    -10.42649146	    -11.48828716	      4.76562471	    -80.34841007	    -15.01589822	     22.45558900	     73.74379981	    -13.81518319	    -16.33477955	      5.47332148	    -42.65983496	    105.10234144	   -811.94752121	    115.87008206	      0.00000000	      0.00000000	      0.00000000
      1.74000000	     68.27397781	     -2.50782893	      4.07682045	      0.65865162	      1.01745019	     -0.20755006	    -10.28975662	    -12.09982280	      5.31257073	    -81.69498094	    -14.96310510	     22.55948305	     74.30124427	    -13.50664917	    -16.24598152	      5.85039716	    -44.30910183	    140.54601975	   -848.74795093	    117.91566861	      0.00000000	      0.00000000	      0.00000000
      1.75000000	     68.01486227	     -2.30931252	      3.86754243	      0.65760845	      1.01918520	     -0.20657790	    -10.02740973	    -12.69431223	      5.95361197	    -82.92488362	    -14.92852664	     22.53618270	     74.77410214	    -13.39192091	    -16.23268963	      6.43789862	    -46.80342312	    175.71026480	   -877.49779207	    117.88717909	      0.00000000	      0.00000000	      0.00000000
      1.76000000	     67.75495129	     -2.26411590	      3.75693955	      0.65747232	      1.01912925	     -0.20632722	     -9.66553700	    -13.24347580	      6.65640225	    -84.10230236	    -14.90888298	     22.37679201	     75.14309707	    -13.30427999	    -16.15461539	      7.16872915	    -49.59919591	    208.89967303	   -896.41719424	    115.96879407	      0.00000000	      0.00000000	      0.00000000
      1.77000000	     67.64044052	     -2.42069621	      3.74481688	      0.65824128	      1.01763350	     -0.20705909	     -9.27309090	    -13.71512601	      7.39211401	    -85.23691480	    -14.89971068	     22.08771374	     75.39261925	    -13.04926645	    -15.93640708	      7.96721167	    -52.20036604	    238.65608644	   -903.81934462	    112.56491454	      0.00000000	      0.00000000	      0.00000000
